<svg width="635" height="119" viewBox="0 0 635 119" fill="none" xmlns="http://www.w3.org/2000/svg">
<path d="M229.279 94.3236H214.842L200.763 40.1636L186.53 94.3236H171.773L152.417 23.9263H165.512L179.471 79.9225L194.71 23.9263H207.937L222.261 80.2548L235.518 23.9263H248.163L229.279 94.3236Z" fill="#0078D4"/>
<path d="M266.685 29.0677C266.685 30.9708 265.991 32.5567 264.604 33.8256C263.25 35.0944 261.598 35.7287 259.649 35.7287C257.7 35.7287 256.048 35.0943 254.693 33.8256C253.339 32.5568 252.662 30.9708 252.662 29.0677C252.662 27.1312 253.339 25.5119 254.693 24.2096C256.081 22.9074 257.733 22.2563 259.649 22.2563C261.664 22.2563 263.332 22.9242 264.654 24.2596C266.008 25.5953 266.685 27.198 266.685 29.0677ZM253.624 94.3129V43.5804H265.327V94.3129H253.624Z" fill="#0078D4"/>
<path d="M310.334 94.3178V66.0711C310.334 58.6701 308.062 52.2858 300.686 52.2858C293.347 52.2858 288.694 58.9644 288.694 65.7206V94.3166H277.247V43.584H288.694V50.7601H288.892C292.691 44.8158 298.175 42.7285 305.343 42.7285C310.728 42.7285 314.891 44.0681 317.831 47.5405C320.804 51.0128 322.109 56.2882 322.109 63.3667V94.3156L310.334 94.3178Z" fill="#0078D4"/>
<path d="M367.861 94.2988V87.768H367.663C364.029 93.9449 356.611 95.369 351.44 95.369C336.07 95.369 330.429 83.3016 330.429 70.46C330.429 61.9459 332.527 55.1347 336.723 50.0263C340.951 44.8844 346.6 42.6588 353.67 42.6588C364.675 42.6588 367.663 48.8474 367.663 48.8474H367.862V19.4873H379.735V94.2993L367.861 94.2988ZM367.96 65.3899C367.96 59.2615 364.064 52.2986 355.839 52.2986C346.431 52.2986 342.775 60.5733 342.775 70.1102C342.775 78.4365 346.225 85.9934 355.184 86.1188C363.969 86.1188 367.889 77.6564 367.96 70.6611V65.3899Z" fill="#0078D4"/>
<path d="M439.656 68.7192C439.656 86.2921 429.265 95.8113 413.659 95.8113C396.689 95.8113 387.991 85.544 387.991 69.8205C387.991 51.8325 398.414 42.4761 414.897 42.4761C430.001 42.4761 439.656 52.234 439.656 68.7192ZM427.465 69.1197C427.465 61.3016 424.723 52.6109 414.253 52.6109C404.211 52.6109 400.31 60.1639 400.31 69.4202C400.31 79.476 404.995 85.872 414.182 85.872C424.023 85.872 427.394 78.2382 427.465 69.1197Z" fill="#0078D4"/>
<path d="M502.456 94.32H489.541L479.669 57.6029L469.078 94.32H456.543L441.939 43.7427H454.194L463.731 83.0358L474.877 43.7427H486.372L496.31 82.934L505.606 43.7427H516.838L502.456 94.32Z" fill="#0078D4"/>
<path d="M553.557 80.2131C553.557 91.5081 543.423 95.9104 533.264 95.9104C526.647 95.9104 520.059 93.3346 520.059 93.3346V81.3206C520.059 81.3206 525.786 86.3643 533.786 86.4271C539.269 86.4271 541.74 84.6792 541.74 81.3517C541.875 78.682 540.267 77.2099 538.344 76.1062C537.023 75.3049 534.958 74.3199 532.15 73.1513C528.846 71.7156 526.385 70.33 524.767 68.9944C523.181 67.6589 521.992 66.0897 521.199 64.2867C520.439 62.4837 519.878 60.5024 519.878 58.0984C519.878 48.9779 527.404 42.5337 539.435 42.5337C547.386 42.5337 550.832 44.5043 550.832 44.5043V55.9174C550.832 55.9174 545.181 51.9704 539.31 51.9345C535.103 51.9345 531.922 53.4826 531.866 56.986C531.836 61.5016 537.307 63.7026 540.574 65.0384C545.331 66.9749 548.812 69.0422 550.762 71.4128C552.711 73.7834 553.557 76.17 553.557 80.2131Z" fill="#0078D4"/>
<path d="M599.668 21.8623V94.3117H587.694V36.5205C587.694 36.5205 583.588 40.3538 573.05 43.1314V32.8185C588.712 26.9644 594.334 21.863 594.334 21.863L599.668 21.8623Z" fill="#0078D4"/>
<path d="M55.4527 -0.00683594H0V56.0379H55.4527V-0.00683594Z" fill="#0078D4"/>
<path d="M116.927 -0.0126953H61.4746V56.032H116.927V-0.0126953Z" fill="#0078D4"/>
<path d="M55.4527 62.1807H0V118.225H55.4527V62.1807Z" fill="#0078D4"/>
<path d="M116.927 62.1807H61.4746V118.225H116.927V62.1807Z" fill="#0078D4"/>
<path d="M635.023 21.8623V94.3117H623.048V36.5205C623.048 36.5205 618.942 40.3538 608.404 43.1314V32.8185C624.066 26.9644 629.688 21.863 629.688 21.863L635.023 21.8623Z" fill="#0078D4"/>
</svg>